# xmcd
#
# Track frame offsets:
# 150
# 15157
# 36912
# 53116
# 77906
# 91702
# 107700
# 119398
# 130545
# 144946
# 158242
# 176445
# 198590
# 219012
# 232804
# 243104
# 263092
# 280104
# 293844
# 302981
#
# Disc length: 4232 seconds
#
#
# Revision: 0
# Processed by: cddbd v1.5.1PL0 Copyright (c) Steve Scherf et al.
# Submitted via: FreeRIP 2.92 
#
DISCID=fe108614
DTITLE=Various Artist - Folk and Country - Hity 1998
DYEAR=1998
DGENRE=Country
TTITLE0=Az to se mnou sekne (Jaromir Nohavica)
TTITLE1=Tanecnice (Robert Krestan and Druha trava)
TTITLE2=Dvakrat (Vlasta Redl)
TTITLE3=Kota 8000 (Pavel Zalman Lohonka)
TTITLE4=Zachrante kone (Kamelot)
TTITLE5=Ja pisnicka (Pavlina Jisova)
TTITLE6=Co prej´bude s moji dusii (Spiritual Kvintet)
TTITLE7=Modlitba (Hana a Petr Ulrychovi)
TTITLE8=Mince (Klic)
TTITLE9=Janosek (Ceskomoravska hudebni spolecnost)
TTITLE10=Ranec plnej pisni (Helena Marsalkova a Fr.Nedved,Pacifik)
TTITLE11=Las Palmas (Wabi Danek)
TTITLE12=Carpe diem (AG Flek)
TTITLE13=Jako driv (Vera Martinova)
TTITLE14=Tri andele (Karel Plihal)
TTITLE15=Styskani (Bratri Ebenove)
TTITLE16=Horo,horo (Pribuzni)
TTITLE17=Sedeli jsme v zadni lavici (Pavel Dobes)
TTITLE18=Silena Lenka a blazen Jan (Duo Cis)
TTITLE19=Fernetovka (Slavek Janousek)
EXTD=
EXTT0=
EXTT1=
EXTT2=
EXTT3=
EXTT4=
EXTT5=
EXTT6=
EXTT7=
EXTT8=
EXTT9=
EXTT10=
EXTT11=
EXTT12=
EXTT13=
EXTT14=
EXTT15=
EXTT16=
EXTT17=
EXTT18=
EXTT19=
PLAYORDER=
